inDegrees=no
nColumns=32
nRows=17
DataType=double
version=3
OpenSimVersion=4.5
endheader
time	pelvis_tilt	pelvis_list	pelvis_rotation	pelvis_tz	pelvis_ty	pelvis_tx	hip_flexion_r	hip_adduction_r	hip_rotation_r	knee_angle_r	ankle_angle_r	subtalar_angle_r	mtp_angle_r	hip_flexion_l	hip_adduction_l	hip_rotation_l	knee_angle_l	ankle_angle_l	subtalar_angle_l	mtp_angle_l	lumbar_extension	lumbar_bending	lumbar_rotation	arm_flex_r	arm_add_r	arm_rot_r	elbow_flex_r	arm_flex_l	arm_add_l	arm_rot_l	elbow_flex_l
0	-0.08382987263184234	-0.07782315112443607	-0.1110991728053676	0	0.91659327	-0	-0.1258077677144464	0.08504267314990356	-0.2101862893278252	-0.2861313166401155	0.356134044137421	0.1444312930258764	0	0.5003218433122919	-0.1266494440195745	-0.4088224787072083	-0.08883142359269025	-0.02812308801265344	0.02273653733435205	0	-0.04942804869865444	0.03203087916067119	0.2332904247676396	0.007528898527360196	-0.3062811672889995	-0.1848603233957503	1.018208670268278	-0.2511500103897596	-0.08762836604489548	-0.08777371689046863	0.5183465838564745
0.01000000000000001	-0.08230092892254899	-0.07504730314893208	-0.1116423605485025	-0.001287309999999986	0.91635467	0.01317301999999999	-0.1301413176217883	0.07484992605818007	-0.2139044867554622	-0.3065095605513167	0.3416459895711948	0.1450889426873388	0	0.4967464277801021	-0.1245972460915726	-0.4147911418950774	-0.1121772550198477	-0.0379551406487708	0.01860789920410395	0	-0.04781663122978277	0.02889834110070782	0.2314844451496056	0.0007793816643999734	-0.3005428022157932	-0.1834880514645856	1.015533232717681	-0.2570330238135151	-0.0873824854561379	-0.0889216234301638	0.5149208535205222
0.02000000000000002	-0.08677826153788629	-0.0576426853709086	-0.1187028588642941	-0.002891649999999996	0.91611882	0.02623481	-0.1178748605463675	0.04494410708579376	-0.2192119014129514	-0.3429862816599422	0.3282513242656156	0.1601120535921038	0	0.4916179816275734	-0.107112335535966	-0.4254588813899287	-0.1086383774319496	-0.07625724681871862	-0.01254001073213338	0	-0.03628697763899489	0.01152570146722966	0.234299620217835	-0.004744283650734409	-0.2926864556606824	-0.1825111144113561	1.001050692344694	-0.2604859362563038	-0.08475016137778998	-0.09850330998134596	0.5015069531157897
0.03000000000000003	-0.09025066388672308	-0.04255850306312001	-0.1180529821515422	-0.005142079999999993	0.91633727	0.03901712	-0.1071729003808724	0.01889273641443065	-0.226080854647284	-0.3764428604217742	0.2988626110949443	0.1688853278938388	0	0.4892147348060765	-0.08917452006798145	-0.4173906832795522	-0.1097679117632736	-0.1013061153775677	-0.04916411512224594	0	-0.02785758451258278	-0.003437674671221241	0.2302066648205451	-0.009905451410612429	-0.2846812365346336	-0.1821285755893649	0.9883695387558142	-0.2626263731443647	-0.08368709860915984	-0.1059867007937897	0.4916463254255599
0.04000000000000004	-0.08861453510333134	-0.03709767073848537	-0.1158116672229658	-0.006578349999999983	0.91699641	0.05187172	-0.1039120228504892	0.005374402837641651	-0.2268856317249652	-0.4065027052242478	0.2728702583831716	0.1706101612208282	0	0.4858284457696266	-0.08374809629572071	-0.4104142695995755	-0.1283799915545349	-0.1163990555094417	-0.05028129932924996	0	-0.02783403932284168	-0.01034557510234512	0.2269731086742727	-0.01775636632655823	-0.2774324362996151	-0.1793032011660527	0.9829709583956434	-0.2639133059800225	-0.08572944066287569	-0.1072688566632849	0.4891854851822082
0.04999999999999982	-0.09534361448777441	-0.0162783679865551	-0.1143692065229163	-0.009105069999999993	0.91702326	0.06538935999999999	-0.08305131338536892	-0.02938577298901337	-0.240249596165403	-0.4517088415577032	0.2456709321283612	0.1824666535449249	0	0.4844871640791933	-0.05978383554792004	-0.4016351159817221	-0.1348614502789983	-0.1459627182154049	-0.09072676721001907	0	-0.01265896033117747	-0.03047511989257978	0.2202438837073278	-0.02405538927496919	-0.2683052214428803	-0.1750386441240421	0.9615412256922137	-0.2684760855114592	-0.08519878883723717	-0.115127720332243	0.4805748193671571
0.05999999999999983	-0.09331725040938427	-0.005542567498192374	-0.1117207811868531	-0.01099992999999999	0.9180767399999999	0.07867433	-0.0748545923704682	-0.05037644700061998	-0.2443423297313449	-0.4880453458812831	0.2021768927562118	0.1810321588805975	0	0.4772603977533166	-0.04803504784102973	-0.4043702375095516	-0.1517093400922364	-0.1253246645917517	-0.1033390947870442	0	-0.01117382284420828	-0.04219221538731361	0.2151212507229388	-0.03298764858532809	-0.2602925567422426	-0.172531574821194	0.9525748375155294	-0.2708846911918913	-0.08767952129620557	-0.1173003280017412	0.4786262086501232
0.06999999999999984	-0.09075494203217535	0.007932710712622412	-0.1088595421074563	-0.01295515	0.91916637	0.09195626999999999	-0.06349287750189987	-0.07575987161513154	-0.2497955025942547	-0.5299740434296161	0.154151782470877	0.1760278810361092	0	0.4708111546652524	-0.03413270500235475	-0.4084884368255436	-0.1700661934056616	-0.1046786178837232	-0.1179628174612193	0	-0.01071316709915513	-0.05696571872723637	0.209539024724478	-0.04120820172209894	-0.2521561331878068	-0.1689010812356673	0.9407122236236144	-0.2713753254103085	-0.09044325470459465	-0.1196537140826342	0.4757843415635114
0.07999999999999985	-0.09267102836347062	0.02542965903222147	-0.1055233460485843	-0.01536792000000001	0.91982665	0.10483869	-0.04091627812594329	-0.1069219157512503	-0.2535701698007741	-0.5798388466364153	0.09813368677035249	0.164261530255489	0	0.4708711276690094	-0.01552040337974557	-0.4069974533582448	-0.1917626384242019	-0.09235730929870238	-0.1283386733279548	0	-0.005250734042833089	-0.07542911880644214	0.2041742252119797	-0.04841948209058856	-0.2447193088070039	-0.1632951976482617	0.9227676841001536	-0.2722993329105103	-0.09364909624407593	-0.1213859216002462	0.4793675543541345
0.08999999999999986	-0.08943385607373217	0.03840062421135209	-0.1013656713171554	-0.01771486999999999	0.92084563	0.1176809	-0.02339299074714509	-0.1337871884306898	-0.2568444205674849	-0.6294127999736144	0.0375682894672638	0.1563390805766893	0	0.4654500170280576	-0.0007090881797100513	-0.4021817522307821	-0.2160230195868776	-0.06382604951146545	-0.1327271510157851	0	-0.007069280031481505	-0.08894631861734903	0.1976733814645802	-0.05752867031414402	-0.2382242586800564	-0.1588003294016189	0.9134994489087858	-0.2716994131556503	-0.09698301248752951	-0.1208979284140532	0.4806247750536724
0.09999999999999987	-0.08865023902721829	0.05285082005390149	-0.09526095674891902	-0.02004681999999999	0.92170976	0.1302874	-0.0009154990200983852	-0.1609455811294872	-0.2564170472040697	-0.6813258205359904	-0.01409598310492646	0.1438884486791493	0	0.4601784036113829	0.01604184929171153	-0.4046913557517042	-0.2343581929439331	-0.03995219664438517	-0.1314710413928491	0	-0.006856249680839132	-0.1047660838374564	0.1890945258459431	-0.0661110094354352	-0.2308098411852564	-0.1534336128194701	0.9012299615927176	-0.2704743843560339	-0.1021166035216272	-0.120130122645917	0.4845566601229481
0.1099999999999999	-0.09418681973628397	0.06965884457915771	-0.09112337270424736	-0.02201438999999999	0.9219625299999999	0.14224959	0.03345126475785846	-0.1885924591973266	-0.2474487585383631	-0.7385219150450412	-0.05744755875515146	0.120728031083347	0	0.4580805354783112	0.0340088700522014	-0.414146061920355	-0.244295588766779	-0.02259559047808045	-0.1145463120630284	0	-0.0001968986214320395	-0.1230798236786329	0.1827140515229342	-0.07329462371728682	-0.2238683770254191	-0.1435381621454716	0.883851636898267	-0.2704942767461835	-0.1088083887326558	-0.1167341077622104	0.4961880021810108
0.1199999999999999	-0.09705964493366849	0.08206756200554005	-0.08508773045902761	-0.02373239999999999	0.92258568	0.15403027	0.06492827013812749	-0.2096704782113493	-0.23909574171815	-0.7930291130715018	-0.1024647436493909	0.09355195034524527	0	0.4496061571885606	0.0493813272817761	-0.4237097654715893	-0.2480634172496903	-0.001500583476316417	-0.09708370140474169	0	0.002175983310804474	-0.136993090707629	0.1741637201693282	-0.07984992557707288	-0.2163133474284981	-0.1352725952219626	0.8685556486518746	-0.2702270148268914	-0.1165162274906426	-0.1109787061811096	0.509499034450427
0.1299999999999999	-0.1028510529080905	0.09384362055401899	-0.08098970658945864	-0.02516615	0.92302575	0.16500703	0.1044194595281482	-0.2267330363667328	-0.2223161667098287	-0.8480656670166313	-0.147987662478071	0.06189954897446173	0	0.4423082894650833	0.06443329895105211	-0.432523159482307	-0.2453747371879272	0.01314247604970739	-0.08533496867572279	0	0.006269501751311025	-0.1500025986737403	0.1667329969359915	-0.0849024497326069	-0.2082486658074985	-0.1270594220354008	0.8529049409100371	-0.267753851860889	-0.1250270215516373	-0.1059568317525698	0.5221610016348398
0.1399999999999999	-0.1068404123230764	0.1019739866113013	-0.07671843407452392	-0.02637401	0.92372737	0.17612672	0.1414941503352604	-0.2380878707983239	-0.2078968287233133	-0.8980193977158792	-0.1873710584136263	0.02826960020031088	0	0.4308103523465284	0.0762239164405262	-0.4409081444512313	-0.2400856849649654	0.02874152867793681	-0.07034125295528572	0	0.008112145500941728	-0.1591389721457249	0.1587292599435435	-0.09005563400742043	-0.2015526287998791	-0.1173734895859909	0.8367505864730117	-0.264602695326597	-0.1332207243686625	-0.1007249729219983	0.5355439130205715
0.1499999999999999	-0.1099524732730206	0.1119128552938311	-0.07519861055049271	-0.02740554000000001	0.92448429	0.1868997	0.1808084054015637	-0.2503758439436975	-0.1901623353865398	-0.9465360860936906	-0.2114486940043072	-0.008708096377082676	0	0.4174193630534197	0.09013099872078495	-0.4484601178020992	-0.2310824914595482	0.04062129426947719	-0.06010385056745238	0	0.008677911082202359	-0.170227428841823	0.1530526074437597	-0.09392185036545815	-0.1945450700684663	-0.1080632514753775	0.8199683360494801	-0.2611956478676227	-0.1421935945236556	-0.09465786513580211	0.5502204090408063
0.1599999999999999	-0.1093761483242909	0.1209303881734927	-0.07315215114019541	-0.02874926999999999	0.92560579	0.19753172	0.2151353952202628	-0.2615628885296543	-0.1758798369729673	-0.9908338195667203	-0.2096930128554535	-0.04931153505564734	0	0.3996627235828336	0.1051375094499684	-0.451052484312552	-0.2207266115842334	0.0556393849091818	-0.05544181451052067	0	0.004223637623164634	-0.1793246601637389	0.1460143558757202	-0.09847368266822752	-0.1879076476748472	-0.1001549333784654	0.8069273666037394	-0.2533065711530491	-0.1501108242717284	-0.09205074221558959	0.5617593858313923
